# xmcd
#
# Track frame offsets:
#	150
#	9425
#	26098
#	43977
#	54144
#	69626
#	80761
#	96334
#	103673
#	118500
#	133112
#	149374
#	167364
#	179036
#	192240
#	207067
#	223629
#	239083
#	251849
#	272716
#	285885
#
# Disc length: 4025 seconds
#
# Revision: 0
# Processed by: cddbd v1.5.2PL0 Copyright (c) Steve Scherf et al.
# Submitted via: EasyCDDAExtractor 10.2.0.1
#
DISCID=3c0fb715
DTITLE=Various Artist - Circuit Rider Records Vol. 47
DYEAR=2005
DGENRE=Gospel
TTITLE0=WC Taylor - Are You Ready
TTITLE1=The Marksmen - It's All Coming Back
TTITLE2=Judy Hudson - Between The Altar And The Cross
TTITLE3=Joan Gregory - Rivers Of Living Water
TTITLE4=Chris Smith - Raise Up Your Hands And Praise Him
TTITLE5=Lori Simmons - He Always Knows
TTITLE6=Bobby Fletcher - No Smoke
TTITLE7=Paula Borden - Oh Hallelujah
TTITLE8=2 Days Later - The Old Songs
TTITLE9=Cheyane - What Judas Didn't Know
TTITLE10=Lyle Stubbs - Lord, You Gave Me A Mountain
TTITLE11=Leslie Martin - Take Me As I Am
TTITLE12=Barry Wayne - Promised Land
TTITLE13=Paul Southerland - Whoopie O' Me
TTITLE14=Pat And Connie Goodson - My Little Girls Wish
TTITLE15=James Ronald Thompson - Storms On The Mountain
TTITLE16=Arlene Renee - Will I See You There
TTITLE17=Pearly Gates - The Ladder Of Love
TTITLE18=Genelle Tennant - Jesus Heard Erery Word I never Said
TTITLE19=Margie Cumbie - He Couldn't Hear, She Couldn't See
TTITLE20=2nd Chance - Can I Sleep In Your Arms Tonight Jesus
EXTD=
EXTT0=
EXTT1=
EXTT2=
EXTT3=
EXTT4=
EXTT5=
EXTT6=
EXTT7=
EXTT8=
EXTT9=
EXTT10=
EXTT11=
EXTT12=
EXTT13=
EXTT14=
EXTT15=
EXTT16=
EXTT17=
EXTT18=
EXTT19=
EXTT20=
PLAYORDER=
